<svg width="1400" height="900" viewBox="0 0 1400 900" fill="none" xmlns="http://www.w3.org/2000/svg">
  <defs>
    <linearGradient id="bgBlue" x1="290" y1="40" x2="1332" y2="392" gradientUnits="userSpaceOnUse">
      <stop stop-color="#1494E6"/>
      <stop offset="1" stop-color="#1DB1FF"/>
    </linearGradient>
    <linearGradient id="metal" x1="72" y1="109" x2="470" y2="703" gradientUnits="userSpaceOnUse">
      <stop stop-color="#FAFAFB"/>
      <stop offset="0.45" stop-color="#DCDDE2"/>
      <stop offset="1" stop-color="#B3B7C1"/>
    </linearGradient>
    <linearGradient id="inner" x1="179" y1="261" x2="421" y2="598" gradientUnits="userSpaceOnUse">
      <stop stop-color="#27292F"/>
      <stop offset="1" stop-color="#565A66"/>
    </linearGradient>
    <filter id="shadow" x="0" y="40" width="1370" height="800" filterUnits="userSpaceOnUse" color-interpolation-filters="sRGB">
      <feDropShadow dx="0" dy="20" stdDeviation="28" flood-color="#1B1E26" flood-opacity="0.16"/>
    </filter>
  </defs>
  <rect width="1400" height="900" rx="34" fill="#FAF8F7"/>
  <rect x="0" y="0" width="1400" height="338" rx="34" fill="url(#bgBlue)"/>
  <rect x="0" y="302" width="1400" height="598" rx="0" fill="#FAF8F7"/>
  <g opacity="0.15">
    <path d="M78 54H470" stroke="#D5EEF9" stroke-width="3"/>
    <path d="M78 90H576" stroke="#D5EEF9" stroke-width="3"/>
    <path d="M78 126H430" stroke="#D5EEF9" stroke-width="3"/>
    <path d="M78 162H630" stroke="#D5EEF9" stroke-width="3"/>
    <path d="M78 198H508" stroke="#D5EEF9" stroke-width="3"/>
    <path d="M78 234H684" stroke="#D5EEF9" stroke-width="3"/>
  </g>
  <g filter="url(#shadow)">
    <path d="M364 162C298 78 188 76 128 146C73 210 69 322 84 404C95 463 110 512 154 557C195 599 242 622 309 612L377 592L426 506L442 356L419 236L364 162Z" fill="url(#metal)"/>
    <path d="M349 184C296 118 207 114 159 172C122 216 112 293 116 365C119 423 134 476 172 522C211 568 271 587 322 575L364 565L399 494L410 377L392 269L349 184Z" fill="#F5F6F8"/>
    <path d="M286 240C245 241 209 260 188 299C157 356 164 440 191 499C213 547 248 584 298 584C349 584 387 549 409 500C435 443 436 371 401 309C378 268 338 240 286 240Z" fill="url(#inner)"/>
    <path d="M462 222L538 170V526L472 554L448 511L458 256L462 222Z" fill="#ECEEF2"/>
    <path d="M117 205L71 242L61 331L84 452L125 552L201 639L154 643L95 577L54 473L40 341L53 236L95 178L117 205Z" fill="#ECEEF2"/>
    <path d="M240 144C289 135 342 145 378 179L346 214C316 189 282 185 247 190L240 144Z" fill="#F7F7F8"/>
    <circle cx="288" cy="352" r="76" fill="#10131A" stroke="#F1F3F7" stroke-width="14"/>
    <circle cx="288" cy="352" r="34" fill="#F5F6F8"/>
    <circle cx="288" cy="352" r="18" fill="#10131A"/>
    <path d="M288 248V274" stroke="#F2F3F6" stroke-width="8" stroke-linecap="round"/>
    <path d="M288 430V456" stroke="#F2F3F6" stroke-width="8" stroke-linecap="round"/>
    <path d="M184 352H210" stroke="#F2F3F6" stroke-width="8" stroke-linecap="round"/>
    <path d="M366 352H392" stroke="#F2F3F6" stroke-width="8" stroke-linecap="round"/>
    <path d="M214 278L232 296" stroke="#F2F3F6" stroke-width="8" stroke-linecap="round"/>
    <path d="M344 408L362 426" stroke="#F2F3F6" stroke-width="8" stroke-linecap="round"/>
    <path d="M214 426L232 408" stroke="#F2F3F6" stroke-width="8" stroke-linecap="round"/>
    <path d="M344 296L362 278" stroke="#F2F3F6" stroke-width="8" stroke-linecap="round"/>
  </g>
  <g opacity="0.55">
    <path d="M530 680H1315" stroke="#E8E6E8" stroke-width="3"/>
    <path d="M530 718H1234" stroke="#E8E6E8" stroke-width="3"/>
    <path d="M530 756H1280" stroke="#E8E6E8" stroke-width="3"/>
  </g>
  <g font-family="Bahnschrift, Segoe UI, sans-serif">
    <text x="620" y="392" fill="#FFFFFF" font-size="92" font-weight="800">AI LECTURE</text>
    <text x="620" y="478" fill="#FFFFFF" font-size="66" font-weight="700">PROMPT ENGINEERING</text>
    <rect x="620" y="526" width="502" height="16" rx="8" fill="#F6C1CC"/>
    <text x="620" y="620" fill="#2B2A2F" font-size="34" font-weight="700">Types of AI systems, security, tools and practice</text>
  </g>
</svg>
